<svg xmlns="http://www.w3.org/2000/svg" xmlns:xlink="http://www.w3.org/1999/xlink" aria-hidden="true" style="position:absolute;width:0;height:0;overflow:hidden">
  <defs>
    <symbol id="favicon" viewBox="0 0 27 32">
      <path stroke-linecap="round" stroke-linejoin="round" stroke-width="2.667" d="M19.424 23.038 5.239 14.174m3.912-6.417 14.185 8.864M8.42 25.023l11.736-19.25m4.81 8.174c-3.04-1.899-4.234-3.384-2.278-6.592L13.062 1.34 1.326 20.59l14.185 8.864z"/>
    </symbol>
    <symbol id="icon-menu-icon" viewBox="0 0 32 32">
      <path stroke-linecap="round" stroke-linejoin="round" stroke-width="2.286" d="M4 16h24M4 8h24M4 24h24"/>
    </symbol>
    <symbol id="icon-facebook" viewBox="0 0 32 32">
      <path  d="M19.52 4.64h.96v3.6h-1.2c-.48 0-.96 0-1.2.24s-.24.48-.24 1.04v1.28h2.64v3.04h-2.64v13.2h-4.08V13.76H11.6v-3.04h2.16V9.68c0-1.76.24-3.04.72-3.6.72-1.04 2.16-1.52 4.32-1.52.24.08.48.08.72.08"/>
    </symbol>
    <symbol id="icon-instagram" viewBox="0 0 32 32">
      <path d="M28.718 10.756a9.3 9.3 0 0 0-.596-3.145 6.55 6.55 0 0 0-3.743-3.737 9.4 9.4 0 0 0-3.108-.596c-1.367-.061-1.801-.078-5.273-.078s-3.916 0-5.274.078a9.4 9.4 0 0 0-3.106.596 6.54 6.54 0 0 0-3.743 3.737 9.3 9.3 0 0 0-.596 3.101c-.061 1.367-.08 1.8-.08 5.265s0 3.909.08 5.265a9.3 9.3 0 0 0 .596 3.104 6.55 6.55 0 0 0 3.744 3.735 9.4 9.4 0 0 0 3.106.639c1.369.061 1.803.079 5.274.079s3.917 0 5.274-.079a9.4 9.4 0 0 0 3.108-.595 6.56 6.56 0 0 0 3.743-3.737 9.4 9.4 0 0 0 .596-3.104c.061-1.365.08-1.798.08-5.265-.003-3.466-.003-3.906-.082-5.264zM15.99 22.531c-3.631 0-6.572-2.936-6.572-6.561s2.941-6.561 6.572-6.561c3.628 0 6.572 2.936 6.572 6.561s-2.944 6.561-6.572 6.561m6.834-11.835a1.53 1.53 0 1 1 0-3.06 1.53 1.53 0 1 1 0 3.06"/>
      <path d="M15.992 19.976a4.004 4.004 0 1 0 0-8.009 4.004 4.004 0 0 0 0 8.009"/>
    </symbol>
    <symbol id="icon-twitter" viewBox="0 0 32 32">
      <path d="M30.667 7.898c-.992.435-2.048.723-3.15.863a5.44 5.44 0 0 0 2.405-3.022 10.9 10.9 0 0 1-3.467 1.323 5.465 5.465 0 0 0-9.456 3.738c0 .433.037.85.127 1.247-4.545-.222-8.567-2.4-11.268-5.718a5.5 5.5 0 0 0-.748 2.763c0 1.893.975 3.572 2.428 4.543a5.4 5.4 0 0 1-2.47-.673v.06a5.49 5.49 0 0 0 4.38 5.372c-.445.122-.93.18-1.433.18-.35 0-.703-.02-1.035-.093.708 2.165 2.718 3.757 5.108 3.808a11 11 0 0 1-6.778 2.332c-.448 0-.878-.02-1.308-.075a15.4 15.4 0 0 0 8.387 2.453c10.06 0 15.56-8.333 15.56-15.557 0-.242-.008-.475-.02-.707a10.9 10.9 0 0 0 2.74-2.838z"/>
    </symbol>
    <symbol id="icon-arrow-down" viewBox="0 0 32 32">
      <path d="M16.947 17.867a1.334 1.334 0 0 1-1.894 0l-6.107-6.12a1.334 1.334 0 1 0-1.894 1.88l6.12 6.12a4 4 0 0 0 5.654 0l6.12-6.12a1.337 1.337 0 0 0-.434-2.172 1.33 1.33 0 0 0-1.46.292l-6.107 6.12z"/>
    </symbol>
    <symbol id="icon-chocolate" viewBox="0 0 32 32">
      <use xlink:href="#reuse-0"/>
      <use xlink:href="#reuse-0"/>
    </symbol>
    <symbol id="icon-coin" viewBox="0 0 32 32">
      <path d="M16 2.667c-7.333 0-13.333 6-13.333 13.333s6 13.333 13.333 13.333 13.333-6 13.333-13.333S23.333 2.667 16 2.667m0 24c-5.867 0-10.667-4.8-10.667-10.667S10.133 5.333 16 5.333 26.667 10.133 26.667 16 21.867 26.667 16 26.667"/>
      <path d="M17.733 14.667h-3.467c-.667 0-1.2-.533-1.2-1.2s.533-1.2 1.2-1.2h4.933c.8 0 1.333-.533 1.333-1.333s-.533-1.333-1.333-1.333h-1.867v-1.2c0-.8-.533-1.333-1.333-1.333s-1.333.533-1.333 1.333v1.2h-.4c-2.133 0-3.867 1.733-3.867 3.867s1.733 3.867 3.867 3.867h3.333c.667 0 1.2.533 1.2 1.2s-.533 1.2-1.2 1.2h-4.933c-.8 0-1.333.533-1.333 1.333s.533 1.333 1.333 1.333h2v1.2c0 .8.533 1.333 1.333 1.333s1.333-.533 1.333-1.333v-1.2h.4c2.133 0 3.867-1.733 3.867-3.867s-1.733-3.867-3.867-3.867z"/>
    </symbol>
    <symbol id="icon-spoon" viewBox="0 0 32 32">
      <path d="M15.451 14.106a5.15 5.15 0 0 1-1.177-3.282c0-4.324 5.181-8.642 10.362-8.642a5.183 5.183 0 0 1 5.181 5.182c0 5.182-4.318 10.364-8.646 10.364a5.15 5.15 0 0 1-3.281-1.177L5.132 29.312a1.73 1.73 0 0 1-2.445-2.445z"/>
    </symbol>
    <symbol id="icon-arrow-right" viewBox="0 0 32 32">
      <path stroke-linecap="round" stroke-linejoin="round" stroke-width="1.333" d="M8.667 15.524h13.714m0 0-3.429-3.429m3.429 3.429-3.429 3.429m-3.428 11.428c8.205 0 14.857-6.652 14.857-14.857S23.729.667 15.524.667.667 7.319.667 15.524s6.652 14.857 14.857 14.857"/>
    </symbol>
    <symbol id="icon-play" viewBox="0 0 30 32">
<path d="M0 32v-32l30.476 16-30.476 16z"></path>
</symbol>
  <symbol id="icon-close" viewBox="0 0 32 32">
<path d="M0.511 30.782c0.691 0.671 1.836 0.671 2.507 0l12.632-12.632 12.632 12.632c0.671 0.671 1.836 0.691 2.507 0s0.671-1.816 0-2.487l-12.632-12.651 12.632-12.632c0.671-0.671 0.691-1.816 0-2.487-0.691-0.691-1.835-0.691-2.507 0l-12.632 12.632-12.632-12.632c-0.671-0.691-1.836-0.711-2.507 0-0.671 0.691-0.671 1.816 0 2.487l12.632 12.632-12.632 12.651c-0.671 0.671-0.691 1.816 0 2.487z"></path>
</symbol>
    <symbol id="icon-mail" viewBox="0 0 32 32">
      <path stroke-linecap="round" stroke-linejoin="round" stroke-width="2.667" d="M5.333 5.333h21.333c1.467 0 2.667 1.2 2.667 2.667v16c0 1.467-1.2 2.667-2.667 2.667H5.333A2.675 2.675 0 0 1 2.666 24V8c0-1.467 1.2-2.667 2.667-2.667"/>
      <path stroke-linecap="round" stroke-linejoin="round" stroke-width="2.667" d="M29.333 8 16 17.333 2.667 8"/>
    </symbol>
    <symbol id="icon-user" viewBox="0 0 32 32">
      <path stroke-linecap="round" stroke-linejoin="round" stroke-width="2.667" d="M26.667 28v-2.667A5.334 5.334 0 0 0 21.334 20H10.667a5.33 5.33 0 0 0-5.333 5.333V28M16 14.667a5.333 5.333 0 1 0 0-10.666 5.333 5.333 0 0 0 0 10.666"/>
    </symbol>
    <symbol id="icon-phone" viewBox="0 0 32 32">
      <path stroke-linecap="round" stroke-linejoin="round" stroke-width="2.824" d="M29.489 22.475v4.235a2.83 2.83 0 0 1-.914 2.092 2.83 2.83 0 0 1-2.163.731 27.95 27.95 0 0 1-12.184-4.334 27.54 27.54 0 0 1-8.471-8.471 27.9 27.9 0 0 1-4.334-12.24 2.83 2.83 0 0 1 .727-2.157 2.82 2.82 0 0 1 2.083-.92h4.235a2.82 2.82 0 0 1 2.824 2.429c.179 1.355.51 2.686.988 3.967a2.82 2.82 0 0 1-.636 2.978l-1.793 1.793a22.6 22.6 0 0 0 8.471 8.471l1.793-1.793a2.83 2.83 0 0 1 2.978-.636c1.281.478 2.612.809 3.967.988a2.823 2.823 0 0 1 2.428 2.866z"/>
    </symbol>
    <path id="reuse-0" d="m13.511.473 8.602 8.613.091-.091a.98.98 0 0 1 1.354-.015l.998.998c.349.349.36.88.095 1.25l-.005.008-.163.219 7.04 7.04a1.593 1.593 0 0 1 0 2.263L20.746 31.535a1.593 1.593 0 0 1-2.263 0l-5.082-5.082a.95.95 0 0 1-.7.362.96.96 0 0 1-.736-.282l-2.971-2.971a.98.98 0 0 1-.015-1.354l.007-.008.088-.087-8.602-8.602a1.593 1.593 0 0 1 0-2.263L11.249.471a1.593 1.593 0 0 1 2.263 0v.001zm7.523 9.691-2.007-2.006a.676.676 0 0 0-.972 0l-4.091 4.091a.69.69 0 0 0-.204.491.7.7 0 0 0 .204.491l1.999 1.999.697-.697-1.789-1.789 3.669-3.68 1.793 1.799.701-.701zm-5.801 5.797-2.005-2.005a.676.676 0 0 0-.972 0l-4.103 4.103a.676.676 0 0 0 0 .971l2.002 2.002.704-.704-1.794-1.787 3.68-3.669 1.787 1.786.699-.698zM7.797 7.078l4.091 4.091a.667.667 0 0 0 .971-.011l4.091-4.091a.65.65 0 0 0 .206-.48h.011a.7.7 0 0 0-.206-.491L12.87 2.005a.69.69 0 0 0-.982 0L7.797 6.108a.676.676 0 0 0 0 .971zm-5.794 5.795 4.091 4.091a.676.676 0 0 0 .971 0l4.091-4.091a.67.67 0 0 0 .205-.491h.011a.68.68 0 0 0-.206-.491L7.075 7.8a.676.676 0 0 0-.972 0L2 11.903a.676.676 0 0 0 0 .971zm7.923 10.004 2.699 2.701 11.013-14.903-.749-.749z"/>
  </defs>
</svg>